<?xml version="1.0" encoding="UTF-8" standalone="no"?>
<svg
   width="1920"
   height="1080"
   viewBox="0 0 1920 1080"
   version="1.1"
   id="svg6"
   sodipodi:docname="splash.svg"
   inkscape:version="1.3 (0e150ed6c4, 2023-07-21)"
   inkscape:export-filename="splash.png"
   inkscape:export-xdpi="96"
   inkscape:export-ydpi="96"
   xmlns:inkscape="http://www.inkscape.org/namespaces/inkscape"
   xmlns:sodipodi="http://sodipodi.sourceforge.net/DTD/sodipodi-0.dtd"
   xmlns:xlink="http://www.w3.org/1999/xlink"
   xmlns="http://www.w3.org/2000/svg"
   xmlns:svg="http://www.w3.org/2000/svg">
  <defs
     id="defs6">
    <linearGradient
       id="linearGradient12"
       inkscape:collect="always">
      <stop
         style="stop-color:#4ca2cd;stop-opacity:1;"
         offset="0"
         id="stop12" />
      <stop
         style="stop-color:#67b26f;stop-opacity:1;"
         offset="1"
         id="stop13" />
    </linearGradient>
    <linearGradient
       inkscape:collect="always"
       xlink:href="#linearGradient12"
       id="linearGradient13"
       x1="400"
       y1="0"
       x2="1920"
       y2="1080"
       gradientUnits="userSpaceOnUse" />
  </defs>
  <sodipodi:namedview
     id="namedview6"
     pagecolor="#505050"
     bordercolor="#ffffff"
     borderopacity="1"
     inkscape:showpageshadow="0"
     inkscape:pageopacity="0"
     inkscape:pagecheckerboard="1"
     inkscape:deskcolor="#505050"
     showgrid="false"
     inkscape:zoom="0.27863046"
     inkscape:cx="780.60381"
     inkscape:cy="680.11229"
     inkscape:window-width="1920"
     inkscape:window-height="1009"
     inkscape:window-x="-8"
     inkscape:window-y="-8"
     inkscape:window-maximized="1"
     inkscape:current-layer="svg6">
    <inkscape:grid
       id="grid6"
       units="px"
       originx="0"
       originy="0"
       spacingx="1"
       spacingy="1"
       empcolor="#0099e5"
       empopacity="0.30196078"
       color="#0099e5"
       opacity="0.14901961"
       empspacing="5"
       dotted="false"
       gridanglex="30"
       gridanglez="30"
       visible="false" />
  </sodipodi:namedview>
  <rect
     style="fill:url(#linearGradient13);stroke:none;stroke-width:18.8976"
     id="rect11"
     width="1920"
     height="1080"
     x="0"
     y="0"
     inkscape:label="background" />
  <g
     id="g11"
     transform="translate(2.4300781e-4,40.011993)"
     inkscape:label="splash">
    <g
       id="g10"
       transform="translate(-133.34391)"
       inkscape:label="main">
      <path
         fill="#478cbf"
         d="m 878.59976,570.20006 30.4,2.8 c 1.59999,0.13333 2.59999,1.06666 3,2.8 l 0.79999,13.40001 26.4,1.99999 1.6,-12.2 c 0.26667,-1.46667 1.26668,-2.46666 3.00002,-2.99999 h 32.39999 c 1.73334,0.53333 2.73334,1.53332 3,2.99999 l 1.6,12.2 26.40004,-1.99999 0.8,-13.40001 c 0.4,-1.73334 1.4,-2.66667 3,-2.8 l 30.4,-2.8 v -49.2 c 4.0001,-5.20001 7.7334,-10.60001 11.2,-16.20001 -4.6667,-7.86666 -10.2,-15.06666 -16.5999,-21.59999 -5.7333,2.66667 -11.2,5.8 -16.4,9.4 -5.3334,-4.93334 -11.2001,-9.2 -17.6001,-12.79999 0.9333,-6.80001 1.4667,-13.60002 1.6,-20.40001 -7.86671,-3.73333 -16.0667,-6.53333 -24.60003,-8.4 -3.46667,5.73333 -6.53334,11.66667 -9.20001,17.8 -6.53333,-0.93333 -13.06667,-0.93333 -19.6,0 -2.66667,-6.13333 -5.73334,-12.06667 -9.19999,-17.8 -8.53335,1.86667 -16.73335,4.66667 -24.60001,8.4 0.13333,6.79999 0.66667,13.6 1.6,20.40001 -6.40001,3.59999 -12.26667,7.86665 -17.59999,12.8 -5.20001,-3.60001 -10.66668,-6.73334 -16.40001,-9.40001 -6.4,6.53333 -11.93333,13.73333 -16.6,21.59999 3.46667,5.6 7.2,11 11.2,16.20001 z m 0,9.59994 v 7.8 c 0,55.2 162.60014,55.2 162.60014,0 v -7.8 l -23.8002,2.40001 -0.5,6.89999 -0.4999,6.9 c -0.1334,0.66667 -0.4334,1.21667 -0.9001,1.65 -0.4667,0.43333 -1.1,0.75 -1.9,0.94999 L 975.19964,600.8 c -1.6,0 -2.66667,-0.73333 -3.2,-2.20001 l -2,-12.99999 h -20 l -2.00001,12.99999 c -0.53333,1.46668 -1.59999,2.20001 -3.19999,2.20001 l -38.4,-2.20001 C 904.79963,598.2 903.8663,597.33334 903.59964,596 l -1.00001,-13.79999 z"
         id="path2"
         style="display:inline;fill:#ffffff;stroke-width:0.199999"
         inkscape:label="logo"
         sodipodi:nodetypes="ccccccccccccccccccccccccccccccccssccccsccccccccccc" />
      <text
         xml:space="preserve"
         style="font-style:normal;font-variant:normal;font-weight:900;font-stretch:normal;font-size:192px;font-family:Onest;-inkscape-font-specification:'Onest, Heavy';font-variant-ligatures:normal;font-variant-caps:normal;font-variant-numeric:normal;font-variant-east-asian:normal;fill:#ffffff;stroke:none;stroke-width:18.8976"
         x="711.00977"
         y="608.06403"
         id="text9"><tspan
           sodipodi:role="line"
           id="tspan9"
           x="711.00977"
           y="608.06403">G</tspan></text>
      <text
         xml:space="preserve"
         style="font-style:normal;font-variant:normal;font-weight:900;font-stretch:normal;font-size:192px;font-family:Onest;-inkscape-font-specification:'Onest, Heavy';font-variant-ligatures:normal;font-variant-caps:normal;font-variant-numeric:normal;font-variant-east-asian:normal;fill:#ffffff;stroke:none;stroke-width:18.8976"
         x="1059.4218"
         y="608.06403"
         id="text10"><tspan
           sodipodi:role="line"
           id="tspan10"
           x="1059.4218"
           y="608.06403">DOT</tspan></text>
    </g>
    <text
       xml:space="preserve"
       style="font-style:normal;font-variant:normal;font-weight:bold;font-stretch:normal;font-size:53.3333px;font-family:Onest;-inkscape-font-specification:'Onest, Bold';font-variant-ligatures:normal;font-variant-caps:normal;font-variant-numeric:normal;font-variant-east-asian:normal;fill:#ffffff;stroke:none;stroke-width:18.8976"
       x="803.67993"
       y="408.73599"
       id="text8"
       inkscape:label="secondary"><tspan
         sodipodi:role="line"
         id="tspan8"
         x="803.67993"
         y="408.73599">Powered By</tspan></text>
  </g>
</svg>
